# xmcd CD database file
#
# Track frame offsets:
#	150
#	26839
#	50775
#	70922
#	92317
#	107468
#	127650
#	156031
#	173502
#	192665
#	214636
#	239822
#
# Disc length: 3413 seconds
#
# Revision: 0
# Processed by: cddbd v1.5.2PL0 Copyright (c) Steve Scherf et al.
# Submitted via: CDex 1.51
#
DISCID=9e0d530c
DTITLE=Keith Urban - Love, Pain, and The Whole Crazy Thing
DYEAR=2006
DGENRE=Country
TTITLE0=Once in a Lifetime
TTITLE1=Shine
TTITLE2=I Told You So
TTITLE3=I Can't Stop Loving You
TTITLE4=Won't Let You Down
TTITLE5=Faster Car
TTITLE6=Stupid Boy
TTITLE7=Used to the Pain
TTITLE8=Raise the Barn
TTITLE9=God Made Woman
TTITLE10=Tu Compañía
TTITLE11=Everybody
EXTD=YEAR: 2006
EXTT0=
EXTT1=
EXTT2=
EXTT3=
EXTT4=
EXTT5=
EXTT6=
EXTT7=
EXTT8=
EXTT9=
EXTT10=
EXTT11=
PLAYORDER=
